HIERARCHY
ROOT Hips
{
    OFFSET 0.0 0.0 0.0
    CHANNELS 6 Xposition Yposition Zposition Zrotation Xrotation Yrotation
    JOINT LeftHipJoint
    {
        OFFSET 0.1 0.0 0.0
        CHANNELS 3 Zrotation Xrotation Yrotation
        JOINT LeftUpLeg
        {
            OFFSET 126.97552802708572 0.0 0.0
            CHANNELS 3 Zrotation Xrotation Yrotation
            JOINT LeftLeg
            {
                OFFSET 0.0 0.0 -408.3928746960463
                CHANNELS 3 Zrotation Xrotation Yrotation
                JOINT LeftFoot
                {
                    OFFSET 0.0 0.0 -392.3994305009846
                    CHANNELS 3 Zrotation Xrotation Yrotation
                    End Site
                    {
                        OFFSET 0.0 -0.1 0.0
                    }
                }
            }
        }
    }
    JOINT LowerBack
    {
        OFFSET 0.0 0.0 0.1
        CHANNELS 3 Zrotation Xrotation Yrotation
        JOINT Spine
        {
            OFFSET 0.0 0.0 218.51849983340463
            CHANNELS 3 Zrotation Xrotation Yrotation
            JOINT Spine1
            {
                OFFSET 0.0 0.0 252.03442693875965
                CHANNELS 3 Zrotation Xrotation Yrotation
                JOINT LeftShoulder
                {
                    OFFSET 0.1 0.0 0.0
                    CHANNELS 3 Zrotation Xrotation Yrotation
                    JOINT LeftArm
                    {
                        OFFSET 144.20295474586956 0.0 0.0
                        CHANNELS 3 Zrotation Xrotation Yrotation
                        JOINT LeftForeArm
                        {
                            OFFSET 262.47662991372636 0.0 0.0
                            CHANNELS 3 Zrotation Xrotation Yrotation
                            JOINT LeftHand
                            {
                                OFFSET 243.94809465466668 0.0 0.0
                                CHANNELS 3 Zrotation Xrotation Yrotation
                                End Site
                                {
                                    OFFSET 0.1 0.0 0.0
                                }
                            }
                        }
                    }
                }
                JOINT Neck
                {
                    OFFSET 0.0 0.0 0.1
                    CHANNELS 3 Zrotation Xrotation Yrotation
                    JOINT Neck1
                    {
                        OFFSET 0.0 0.0 104.69799913019233
                        CHANNELS 3 Zrotation Xrotation Yrotation
                        End Site
                        {
                            OFFSET 0.0 0.0 114.49465937060506
                        }
                    }
                }
                JOINT RightShoulder
                {
                    OFFSET -0.1 0.0 0.0
                    CHANNELS 3 Zrotation Xrotation Yrotation
                    JOINT RightArm
                    {
                        OFFSET -144.20295474586956 0.0 0.0
                        CHANNELS 3 Zrotation Xrotation Yrotation
                        JOINT RightForeArm
                        {
                            OFFSET -262.47662991372636 0.0 0.0
                            CHANNELS 3 Zrotation Xrotation Yrotation
                            JOINT RightHand
                            {
                                OFFSET -243.94809465466668 0.0 0.0
                                CHANNELS 3 Zrotation Xrotation Yrotation
                                End Site
                                {
                                    OFFSET -0.1 0.0 0.0
                                }
                            }
                        }
                    }
                }
            }
        }
    }
    JOINT RightHipJoint
    {
        OFFSET -0.1 0.0 0.0
        CHANNELS 3 Zrotation Xrotation Yrotation
        JOINT RightUpLeg
        {
            OFFSET -126.97552802708572 0.0 0.0
            CHANNELS 3 Zrotation Xrotation Yrotation
            JOINT RightLeg
            {
                OFFSET 0.0 0.0 -408.3928746960463
                CHANNELS 3 Zrotation Xrotation Yrotation
                JOINT RightFoot
                {
                    OFFSET 0.0 0.0 -392.3994305009846
                    CHANNELS 3 Zrotation Xrotation Yrotation
                    End Site
                    {
                        OFFSET 0.0 -0.1 0.0
                    }
                }
            }
        }
    }
}
MOTION
Frames: 9
Frame Time: 0.03333333333333333
0.0 0.0 792.9179289637539 27.967949124281176 5.932711453221819 6.265149760918203 -6.896728590703373e-34 -3.9756933518293955e-16 -1.9878466759146977e-16 -0.448437067121182 -23.31471262060821 0.5670874885062871 0.9710457469777056 29.66928148182859 -2.2923250784929423 0.0 0.0 0.0 -6.896728590703373e-34 -3.9756933518293955e-16 -1.9878466759146977e-16 0.03535975392057017 1.935392147397455 0.7397832125185745 2.159356080273651 8.024888280764611e-16 3.825160940424475e-16 -6.3611093629270335e-15 -7.951386703658792e-16 3.9756933518293955e-16 -27.0152895401783 12.425025465061287 78.58050373650772 -17.9001661763551 -2.512574502023189e-15 3.1762095128642712e-15 0.0 0.0 2.040648853243682e-15 -6.3611093629270335e-15 -7.951386703658792e-16 3.9756933518293955e-16 -6.071631757425371 -3.6437859462346567 -1.5798896687169155 -6.3611093629270335e-15 -7.951386703658792e-16 3.9756933518293955e-16 20.021689028764815 8.606363433634364 -72.33608089225147 44.453632490497846 -5.888438492790867e-15 2.40624280648001e-15 0.0 0.0 -1.5902773407317584e-15 -6.896728590703373e-34 -3.9756933518293955e-16 -1.9878466759146977e-16 -0.3574569863304651 -18.746018413010592 -3.2596290627901885 -1.0730065429848576 26.485435739679268 -0.870001298266873 0.0 0.0 3.975693351829396e-16
0.0 0.0 792.9179289637539 27.850869257953356 5.907125508627224 6.378384118744821 0.0 0.0 -1.987846675914698e-16 -0.46287435528442233 -23.376942726277623 0.45591344884631796 0.9345755075574074 29.87613965840167 -2.309887042920332 0.0 0.0 0.0 0.0 0.0 -1.987846675914698e-16 0.03573709152461235 1.9009841752598258 0.724724083398169 2.0930800159965357 8.276824509151371e-16 1.7742407207546195e-15 0.0 0.0 0.0 -27.54859472910709 11.885405089291982 78.38043184293605 -17.854175994505585 8.873928477623632e-16 -8.21132733689446e-15 0.0 0.0 1.528157132109424e-15 0.0 0.0 0.0 -5.94222354703739 -3.6691133543151824 -1.879757677235384 0.0 0.0 0.0 20.150173236071097 8.134515424345086 -71.6673788704051 45.611162906416354 9.326316456963599e-16 -1.4193264594484089e-14 6.361109362927033e-15 0.0 0.0 0.0 0.0 -1.987846675914698e-16 -0.3691563916923144 -18.812336685552427 -3.4039978687613996 -1.134855261002988 26.606868667257043 -0.7942372596273637 0.0 0.0 7.951386703658792e-16
0.0 0.0 792.9179289637539 27.7197128177254 5.876086815784315 6.487724339787335 0.0 0.0 0.0 -0.4902867606128617 -23.33492474841855 0.3321099381311352 0.906796370304767 29.945209728370795 -2.367793621654676 0.0 0.0 0.0 0.0 0.0 0.0 0.03762297125851346 1.886317311587336 0.7159057177113283 1.998691143988713 4.460468718380363e-16 2.7756280374022977e-15 0.0 0.0 7.951386703658792e-16 -28.273147913953885 11.275127960672295 78.11213161313366 -17.76082391964904 1.8073811945771378e-15 -2.9595280483730093e-14 3.975693351829396e-16 8.728672122608957e-33 2.5158684492045398e-15 0.0 0.0 7.951386703658792e-16 -5.901352036494958 -3.622206925993014 -2.2150977636563534 0.0 0.0 7.951386703658792e-16 20.05606454534213 7.7405285441962235 -70.77826450171595 47.41501209152525 -4.545496487028887e-15 5.4697442440488495e-15 0.0 0.0 1.5902773407317588e-15 0.0 0.0 0.0 -0.3912636527279745 -18.8022335598195 -3.5522619197521523 -1.1771979013333642 26.65932077273813 -0.7486303816413438 0.0 0.0 -3.9756933518293955e-16
0.0 0.0 792.9179289637539 27.547363900255753 6.07304647732303 6.599899250880455 0.0 0.0 0.0 -0.5258184709232893 -23.651454529258803 0.18752138806982713 0.8659071686485895 29.963666849682937 -2.296526051875728 0.0 0.0 -7.951386703658792e-16 0.0 0.0 0.0 0.03890503085669368 1.8475232046803536 0.6868911710795399 1.9279021712816036 -1.2293256241721804e-15 -2.1662565703668413e-15 0.0 0.0 5.963540027744094e-16 -28.810965438757577 10.68138545411616 77.84261485259333 -17.898770446474977 4.135993746542838e-15 -2.6263777631863516e-14 0.0 0.0 2.3108717607508363e-15 0.0 0.0 5.963540027744094e-16 -5.960149933248949 -3.7537531687666603 -2.552118927659961 0.0 0.0 5.963540027744094e-16 19.295251366994567 6.890771648512343 -69.67551699343666 49.88944566450219 -4.426335013007423e-15 5.566614658975599e-15 0.0 0.0 -3.1805546814635168e-15 0.0 0.0 0.0 -0.4199099665600041 -19.101790651578106 -3.702332108186485 -1.2193574434405838 26.691141509552782 -0.7078077643017425 0.0 0.0 -3.975693351829396e-16
0.0 0.0 792.9179289637539 27.310117551222383 6.249666689719216 6.714832632496539 0.0 0.0 -3.9756933518293955e-16 -0.5628221178524182 -24.014884351250352 0.0030816382400681674 0.808960674511909 30.21364004885601 -2.1657004659468373 -4.1380371544220234e-32 -1.987846675914698e-15 -2.3854160110976376e-15 0.0 0.0 -3.9756933518293955e-16 0.04056675769257189 1.8320558493262737 0.6265556264490499 1.890619080866199 -4.0735388292756157e-16 -5.897137330660555e-16 0.0 0.0 -1.987846675914698e-16 -29.125038784976372 9.9384328327367 77.61252389042541 -17.90054861029843 -4.9805454206156445e-15 2.1401743531937123e-14 3.975693351829396e-16 -3.40525974165979e-33 -9.814992962328821e-16 0.0 0.0 -1.987846675914698e-16 -6.006956577176895 -3.9856892927110326 -2.7874441995945145 0.0 0.0 -1.987846675914698e-16 18.37264975167893 5.670445173022692 -68.2603125608402 52.90758818292901 -2.83372125266562e-15 -5.695062439456582e-15 0.0 0.0 1.5902773407317584e-15 0.0 0.0 -3.9756933518293955e-16 -0.4471058481218055 -19.337542595157604 -3.793821223968876 -1.2340184816148685 26.7406340534307 -0.7687157441783578 0.0 0.0 3.975693351829396e-16
0.0 0.0 792.9179289637539 27.07127288815281 6.414451522503414 6.824383609605917 0.0 0.0 -1.987846675914698e-16 -0.6272660760208874 -24.31601451063598 -0.16538331041477225 0.7870446412553362 30.050500581144114 -2.0780726134722807 -3.724233438979821e-32 -1.7890620083232284e-15 -2.3854160110976376e-15 0.0 0.0 -1.987846675914698e-16 0.04403576809923532 1.8110962682104934 0.5415357282138163 1.7903866353349873 1.6056117389535708e-15 9.689564313815368e-16 -3.1805546814635168e-15 6.620859447075238e-32 -2.3854160110976376e-15 -29.477341402824344 9.022171512410702 77.31803706139542 -17.94780378796877 3.090171136587324e-15 -9.373161978638782e-15 0.0 0.0 3.0190421390454474e-15 -3.1805546814635168e-15 6.620859447075238e-32 -2.3854160110976376e-15 -5.995495105227694 -4.1152371513142025 -3.060343893044617 -3.1805546814635168e-15 6.620859447075238e-32 -2.3854160110976376e-15 17.553449305077088 4.205835231323967 -66.86092415604492 56.00343167400738 -1.087625399362992e-14 2.0192457981102316e-14 0.0 0.0 3.1805546814635168e-15 0.0 0.0 -1.987846675914698e-16 -0.4922533490850435 -19.400676582702367 -3.862064473731224 -1.187433954070115 26.467181551905952 -0.8327563541380159 0.0 -1.5902773407317584e-15 0.0
0.0 0.0 792.9179289637539 26.98347100037618 6.585635807526718 6.912930939058207 0.0 0.0 -7.951386703658792e-16 -0.6696129331151267 -24.619848755158273 -0.282836157030514 0.7622283684183763 29.879094381330304 -2.0049903214851477 0.0 0.0 3.975693351829396e-16 0.0 0.0 -7.951386703658792e-16 0.04576156291904743 1.788626181153353 0.483986683603946 1.8101359364986758 2.4008181783045282e-15 9.561198787075643e-16 0.0 0.0 -3.975693351829396e-16 -29.674437407360944 8.524594053405622 77.1665283074012 -18.237749445037398 -4.4445841576117885e-15 3.270722761636659e-14 0.0 0.0 -2.807833429729511e-15 0.0 0.0 -3.975693351829396e-16 -6.290673252901536 -4.329830664736205 -3.3584141629706714 0.0 0.0 -3.975693351829396e-16 16.30085364156923 2.40409214703478 -65.51934137453335 59.201038572399554 -1.5710341802835778e-15 -2.7654619299784623e-15 0.0 0.0 -2.3854160110976376e-15 0.0 0.0 -7.951386703658792e-16 -0.5259586144150203 -19.683903758179657 -3.947159770613847 -1.1857077206538555 26.383360022192697 -0.8188150605729295 0.0 0.0 -3.975693351829396e-16
0.0 0.0 792.9179289637539 26.863074249109683 6.51470877715099 6.984298167505358 0.0 0.0 0.0 -0.6724405059801518 -24.55361441224685 -0.3605688078003921 0.7163992347624762 29.628976340142632 -1.9153136092476992 0.0 0.0 7.951386703658792e-16 0.0 0.0 0.0 0.046936815211865934 1.8214717782512644 0.5115603143390035 1.9139247152165235 -2.835716794617299e-15 -3.133631404635412e-15 0.0 0.0 -7.951386703658791e-16 -29.343097706580313 8.30243507452325 76.90292826381784 -18.645979104396517 6.527409206701796e-16 -1.3792587299908036e-14 0.0 0.0 2.0375428428125655e-15 0.0 0.0 -7.951386703658791e-16 -6.5493511627936485 -4.34116238527246 -3.6945823279237673 0.0 0.0 -7.951386703658791e-16 15.575050946973926 0.701827877559641 -63.9373418062254 61.64911361624134 -1.6297510954653612e-15 -2.7312706655710526e-15 0.0 0.0 9.93923337957349e-16 0.0 0.0 0.0 -0.5288352103233247 -19.65588938388217 -4.03633399621236 -1.221337523999023 26.322147130995592 -0.7308538313927723 4.827710013492361e-33 1.3914926731402884e-15 -3.9756933518293955e-16
0.0 0.0 792.9179289637539 26.732031799599252 6.281358369383696 7.123360102180268 -2.069018577211012e-33 -1.1927080055488188e-15 -1.987846675914698e-16 -0.6812165985935134 -24.31262160301968 -0.5691987851541195 0.6146730536082641 29.48498665977806 -1.7375238681559477 0.0 0.0 -3.975693351829396e-16 -2.069018577211012e-33 -1.1927080055488188e-15 -1.987846675914698e-16 0.049530053288829985 1.8765162088968654 0.45770765839590977 1.9505332168844567 3.045125134112179e-17 1.788802837351647e-15 0.0 0.0 5.963540027744094e-16 -29.749349625500088 8.359900328704914 76.69361601982094 -19.088675110368268 -3.924949880047369e-15 1.3752674946300904e-14 0.0 0.0 2.087239009710433e-15 0.0 0.0 5.963540027744094e-16 -6.636891082345311 -4.252978480422894 -4.033234624813955 0.0 0.0 5.963540027744094e-16 15.099577837422713 -0.5885674152351247 -62.288567937244395 64.08556787148153 7.079458908298915e-15 -6.78897617174042e-16 0.0 0.0 -2.782985346280577e-15 -2.069018577211012e-33 -1.1927080055488188e-15 -1.987846675914698e-16 -0.535497515284423 -19.451969329893117 -4.226385403852008 -1.2870154573090364 26.133933548766795 -0.6821892323541578 0.0 0.0 -3.975693351829396e-16
